# MagicaVoxel @ Ephtracy

# material
mtllib BallHolder.mtl
usemtl palette

# normals
vn -1 0 0
vn 1 0 0
vn 0 0 1
vn 0 0 -1
vn 0 -1 0
vn 0 1 0

# texcoords
vt 0.306641 0.5
vt 0.419922 0.5

# verts
v -2.5 0 2.5
v -2.5 0 1.5
v -2.5 0 0.5
v -2.5 0 -0.5
v -2.5 0 -1.5
v -2.5 0 -2.5
v -2.5 1 2.5
v -2.5 1 1.5
v -2.5 1 0.5
v -2.5 1 -0.5
v -2.5 1 -1.5
v -2.5 1 -2.5
v 1.5 1 2.5
v 1.5 1 0.5
v 1.5 1 -0.5
v 1.5 1 -2.5
v 1.5 2 1.5
v 1.5 2 0.5
v 1.5 2 -0.5
v 1.5 2 -1.5
v 1.5 3 1.5
v 1.5 3 0.5
v 1.5 3 -0.5
v 1.5 3 -1.5
v 1.5 4 1.5
v 1.5 4 0.5
v 1.5 4 -0.5
v 1.5 4 -1.5
v 1.5 5 2.5
v 1.5 5 1.5
v 1.5 5 0.5
v 1.5 5 -0.5
v 1.5 5 -1.5
v 1.5 5 -2.5
v 2.5 0 2.5
v 2.5 0 1.5
v 2.5 0 -1.5
v 2.5 0 -2.5
v 2.5 1 1.5
v 2.5 1 0.5
v 2.5 1 -0.5
v 2.5 1 -1.5
v 2.5 2 1.5
v 2.5 2 0.5
v 2.5 2 -0.5
v 2.5 2 -1.5
v 2.5 3 1.5
v 2.5 3 0.5
v 2.5 3 -0.5
v 2.5 3 -1.5
v 2.5 4 1.5
v 2.5 4 0.5
v 2.5 4 -0.5
v 2.5 4 -1.5
v 2.5 5 2.5
v 2.5 5 1.5
v 2.5 5 0.5
v 2.5 5 -0.5
v 2.5 5 -1.5
v 2.5 5 -2.5
v -2.5 0 2.5
v -2.5 1 2.5
v 1.5 1 2.5
v 1.5 5 2.5
v 2.5 0 2.5
v 2.5 5 2.5
v -2.5 0 -2.5
v -2.5 1 -2.5
v 1.5 1 -2.5
v 1.5 5 -2.5
v 2.5 0 -2.5
v 2.5 5 -2.5
v -2.5 0 2.5
v 2.5 0 2.5
v -2.5 0 1.5
v -1.5 0 1.5
v -0.5 0 1.5
v 0.5 0 1.5
v 1.5 0 1.5
v 2.5 0 1.5
v -2.5 0 0.5
v -1.5 0 0.5
v -0.5 0 0.5
v 0.5 0 0.5
v 1.5 0 0.5
v -2.5 0 -0.5
v -1.5 0 -0.5
v -0.5 0 -0.5
v 0.5 0 -0.5
v 1.5 0 -0.5
v -2.5 0 -1.5
v -1.5 0 -1.5
v -0.5 0 -1.5
v 0.5 0 -1.5
v 1.5 0 -1.5
v 2.5 0 -1.5
v -2.5 0 -2.5
v 2.5 0 -2.5
v -2.5 1 2.5
v 1.5 1 2.5
v -2.5 1 1.5
v -1.5 1 1.5
v -0.5 1 1.5
v 0.5 1 1.5
v -2.5 1 0.5
v -1.5 1 0.5
v -0.5 1 0.5
v 0.5 1 0.5
v 1.5 1 0.5
v -2.5 1 -0.5
v -1.5 1 -0.5
v -0.5 1 -0.5
v 0.5 1 -0.5
v 1.5 1 -0.5
v -2.5 1 -1.5
v -1.5 1 -1.5
v -0.5 1 -1.5
v 0.5 1 -1.5
v -2.5 1 -2.5
v 1.5 1 -2.5
v 1.5 5 2.5
v 2.5 5 2.5
v 1.5 5 1.5
v 2.5 5 1.5
v 1.5 5 0.5
v 2.5 5 0.5
v 1.5 5 -0.5
v 2.5 5 -0.5
v 1.5 5 -1.5
v 2.5 5 -1.5
v 1.5 5 -2.5
v 2.5 5 -2.5

# faces
f 7/2/1 2/2/1 1/2/1
f 8/1/1 3/1/1 2/1/1
f 8/2/1 2/2/1 7/2/1
f 9/2/1 4/2/1 3/2/1
f 9/1/1 3/1/1 8/1/1
f 10/1/1 5/1/1 4/1/1
f 10/2/1 4/2/1 9/2/1
f 11/2/1 6/2/1 5/2/1
f 11/1/1 5/1/1 10/1/1
f 12/2/1 6/2/1 11/2/1
f 17/2/1 14/2/1 13/2/1
f 18/1/1 15/1/1 14/1/1
f 18/2/1 14/2/1 17/2/1
f 19/2/1 16/2/1 15/2/1
f 19/1/1 15/1/1 18/1/1
f 20/2/1 16/2/1 19/2/1
f 21/1/1 18/1/1 17/1/1
f 21/2/1 17/2/1 13/2/1
f 22/2/1 19/2/1 18/2/1
f 22/1/1 18/1/1 21/1/1
f 23/1/1 20/1/1 19/1/1
f 23/2/1 19/2/1 22/2/1
f 24/2/1 16/2/1 20/2/1
f 24/1/1 20/1/1 23/1/1
f 25/2/1 22/2/1 21/2/1
f 25/2/1 21/2/1 13/2/1
f 26/1/1 23/1/1 22/1/1
f 26/2/1 22/2/1 25/2/1
f 27/2/1 24/2/1 23/2/1
f 27/1/1 23/1/1 26/1/1
f 28/2/1 16/2/1 24/2/1
f 28/2/1 24/2/1 27/2/1
f 29/2/1 25/2/1 13/2/1
f 30/1/1 26/1/1 25/1/1
f 30/2/1 25/2/1 29/2/1
f 31/2/1 27/2/1 26/2/1
f 31/1/1 26/1/1 30/1/1
f 32/1/1 28/1/1 27/1/1
f 32/2/1 27/2/1 31/2/1
f 33/2/1 16/2/1 28/2/1
f 33/1/1 28/1/1 32/1/1
f 34/2/1 16/2/1 33/2/1
f 35/2/2 36/2/2 39/2/2
f 36/1/2 37/1/2 39/1/2
f 39/1/2 37/1/2 40/1/2
f 40/1/2 37/1/2 41/1/2
f 37/2/2 38/2/2 42/2/2
f 41/1/2 37/1/2 42/1/2
f 35/2/2 39/2/2 43/2/2
f 39/2/2 40/2/2 43/2/2
f 40/1/2 41/1/2 44/1/2
f 43/2/2 40/2/2 44/2/2
f 41/2/2 42/2/2 45/2/2
f 44/1/2 41/1/2 45/1/2
f 42/2/2 38/2/2 46/2/2
f 45/2/2 42/2/2 46/2/2
f 35/2/2 43/2/2 47/2/2
f 43/1/2 44/1/2 47/1/2
f 44/2/2 45/2/2 48/2/2
f 47/1/2 44/1/2 48/1/2
f 45/1/2 46/1/2 49/1/2
f 48/2/2 45/2/2 49/2/2
f 46/2/2 38/2/2 50/2/2
f 49/1/2 46/1/2 50/1/2
f 35/2/2 47/2/2 51/2/2
f 47/2/2 48/2/2 51/2/2
f 48/1/2 49/1/2 52/1/2
f 51/2/2 48/2/2 52/2/2
f 49/2/2 50/2/2 53/2/2
f 52/1/2 49/1/2 53/1/2
f 50/2/2 38/2/2 54/2/2
f 53/2/2 50/2/2 54/2/2
f 35/2/2 51/2/2 55/2/2
f 51/1/2 52/1/2 56/1/2
f 55/2/2 51/2/2 56/2/2
f 52/2/2 53/2/2 57/2/2
f 56/1/2 52/1/2 57/1/2
f 53/1/2 54/1/2 58/1/2
f 57/2/2 53/2/2 58/2/2
f 54/2/2 38/2/2 59/2/2
f 58/1/2 54/1/2 59/1/2
f 59/2/2 38/2/2 60/2/2
f 63/2/3 62/2/3 61/2/3
f 65/2/3 63/2/3 61/2/3
f 65/2/3 64/2/3 63/2/3
f 66/2/3 64/2/3 65/2/3
f 67/2/4 68/2/4 69/2/4
f 67/2/4 69/2/4 71/2/4
f 69/2/4 70/2/4 71/2/4
f 71/2/4 70/2/4 72/2/4
f 75/2/5 74/2/5 73/2/5
f 76/2/5 74/2/5 75/2/5
f 77/2/5 74/2/5 76/2/5
f 78/2/5 74/2/5 77/2/5
f 79/2/5 74/2/5 78/2/5
f 80/2/5 74/2/5 79/2/5
f 81/1/5 76/1/5 75/1/5
f 82/2/5 77/2/5 76/2/5
f 82/1/5 76/1/5 81/1/5
f 83/1/5 78/1/5 77/1/5
f 83/2/5 77/2/5 82/2/5
f 84/2/5 79/2/5 78/2/5
f 84/1/5 78/1/5 83/1/5
f 85/1/5 80/1/5 79/1/5
f 85/2/5 79/2/5 84/2/5
f 86/2/5 82/2/5 81/2/5
f 87/1/5 83/1/5 82/1/5
f 87/2/5 82/2/5 86/2/5
f 88/2/5 84/2/5 83/2/5
f 88/1/5 83/1/5 87/1/5
f 89/1/5 85/1/5 84/1/5
f 89/2/5 84/2/5 88/2/5
f 90/1/5 80/1/5 85/1/5
f 90/1/5 85/1/5 89/1/5
f 91/1/5 87/1/5 86/1/5
f 92/2/5 88/2/5 87/2/5
f 92/1/5 87/1/5 91/1/5
f 93/1/5 89/1/5 88/1/5
f 93/2/5 88/2/5 92/2/5
f 94/2/5 90/2/5 89/2/5
f 94/1/5 89/1/5 93/1/5
f 95/1/5 80/1/5 90/1/5
f 95/2/5 90/2/5 94/2/5
f 96/1/5 80/1/5 95/1/5
f 97/2/5 92/2/5 91/2/5
f 97/2/5 94/2/5 93/2/5
f 97/2/5 96/2/5 95/2/5
f 97/2/5 95/2/5 94/2/5
f 97/2/5 93/2/5 92/2/5
f 98/2/5 96/2/5 97/2/5
f 99/2/6 100/2/6 101/2/6
f 101/2/6 100/2/6 102/2/6
f 102/2/6 100/2/6 103/2/6
f 103/2/6 100/2/6 104/2/6
f 101/1/6 102/1/6 105/1/6
f 102/2/6 103/2/6 106/2/6
f 105/1/6 102/1/6 106/1/6
f 103/1/6 104/1/6 107/1/6
f 106/2/6 103/2/6 107/2/6
f 104/2/6 100/2/6 108/2/6
f 107/1/6 104/1/6 108/1/6
f 108/2/6 100/2/6 109/2/6
f 105/2/6 106/2/6 110/2/6
f 106/1/6 107/1/6 111/1/6
f 110/2/6 106/2/6 111/2/6
f 107/2/6 108/2/6 112/2/6
f 111/1/6 107/1/6 112/1/6
f 108/1/6 109/1/6 113/1/6
f 112/2/6 108/2/6 113/2/6
f 113/1/6 109/1/6 114/1/6
f 110/1/6 111/1/6 115/1/6
f 111/2/6 112/2/6 116/2/6
f 115/1/6 111/1/6 116/1/6
f 112/1/6 113/1/6 117/1/6
f 116/2/6 112/2/6 117/2/6
f 113/2/6 114/2/6 118/2/6
f 117/1/6 113/1/6 118/1/6
f 115/2/6 116/2/6 119/2/6
f 116/2/6 117/2/6 119/2/6
f 117/2/6 118/2/6 119/2/6
f 118/2/6 114/2/6 120/2/6
f 119/2/6 118/2/6 120/2/6
f 121/2/6 122/2/6 123/2/6
f 123/2/6 122/2/6 124/2/6
f 123/1/6 124/1/6 125/1/6
f 125/1/6 124/1/6 126/1/6
f 125/2/6 126/2/6 127/2/6
f 127/2/6 126/2/6 128/2/6
f 127/1/6 128/1/6 129/1/6
f 129/1/6 128/1/6 130/1/6
f 129/2/6 130/2/6 131/2/6
f 131/2/6 130/2/6 132/2/6
